<?xml version="1.0" standalone="no"?>
<!DOCTYPE svg PUBLIC "-//W3C//DTD SVG 20010904//EN"
 "http://www.w3.org/TR/2001/REC-SVG-20010904/DTD/svg10.dtd">
<svg version="1.0" xmlns="http://www.w3.org/2000/svg"
 width="1024.000000pt" height="1024.000000pt" viewBox="0 0 1024.000000 1024.000000"
 preserveAspectRatio="xMidYMid meet">

<g transform="translate(0.000000,1024.000000) scale(0.100000,-0.100000)"
fill="#000000" stroke="none">
<path d="M2174 6505 c-256 -56 -460 -253 -524 -509 -16 -64 -20 -113 -20 -258
0 -166 1 -179 18 -174 9 3 60 24 112 45 l95 40 6 153 c6 173 21 226 87 313 83
109 193 166 334 173 142 7 257 -37 347 -133 93 -98 120 -178 130 -373 l6 -134
108 -43 107 -43 0 182 c0 215 -15 292 -81 416 -98 183 -258 302 -461 344 -92
19 -180 19 -264 1z"/>
<path d="M1805 5537 c-264 -106 -490 -199 -503 -206 -18 -10 -22 -19 -20 -44
l3 -32 455 -178 c250 -98 481 -188 512 -199 l57 -20 313 125 313 125 3 -182 2
-182 -60 -127 c-33 -70 -60 -134 -60 -142 0 -23 368 -23 377 1 3 8 -21 69 -56
140 l-61 125 0 213 0 213 93 35 c50 20 103 39 117 43 14 4 31 12 38 17 16 14
15 53 -2 67 -25 21 -989 401 -1015 401 -14 -1 -242 -88 -506 -193z"/>
<path d="M3886 5629 c-64 -16 -155 -70 -197 -118 -149 -169 -169 -497 -41
-684 46 -68 83 -99 159 -135 51 -24 70 -27 158 -27 89 0 106 3 151 27 28 15
65 42 81 62 l31 35 7 -60 7 -59 74 0 74 0 0 255 0 255 -185 0 -185 0 0 -75 0
-75 91 0 92 0 -6 -41 c-12 -93 -94 -159 -195 -159 -93 0 -159 46 -204 145 -20
43 -23 66 -23 170 0 105 3 127 24 172 28 62 92 125 146 143 49 16 119 6 162
-23 19 -12 43 -43 56 -69 l22 -47 99 -1 98 0 -7 38 c-21 111 -103 211 -210
252 -67 26 -212 36 -279 19z"/>
<path d="M6180 5458 l0 -172 -32 32 c-105 101 -292 85 -397 -35 -133 -151
-115 -454 35 -568 52 -40 97 -55 165 -55 84 0 132 16 185 63 l44 39 0 -46 0
-46 95 0 95 0 0 480 0 480 -95 0 -95 0 0 -172z m-101 -243 c70 -36 107 -118
98 -217 -10 -111 -78 -188 -165 -188 -40 0 -50 5 -87 43 -50 52 -69 112 -63
196 9 130 121 216 217 166z"/>
<path d="M6470 5150 l0 -480 280 0 280 0 0 85 0 85 -175 0 -175 0 0 395 0 395
-105 0 -105 0 0 -480z"/>
<path d="M8500 5150 l0 -480 95 0 95 0 0 113 0 113 39 38 39 38 75 -139 c42
-76 79 -144 84 -151 6 -10 34 -12 109 -10 l101 3 -114 200 c-63 110 -116 206
-120 213 -3 7 25 46 63 88 38 42 93 103 122 135 l54 59 -106 0 -105 0 -118
-131 -118 -130 -3 260 -2 261 -95 0 -95 0 0 -480z"/>
<path d="M5192 5379 c-123 -21 -206 -94 -225 -196 l-6 -33 94 0 c93 0 95 0
101 25 10 42 50 65 110 65 40 0 59 -5 79 -22 25 -22 50 -94 36 -103 -4 -2 -55
-11 -113 -20 -59 -8 -128 -22 -156 -30 -136 -41 -195 -141 -158 -268 27 -91
102 -140 217 -139 78 0 131 20 181 69 l36 35 9 -43 9 -44 88 -3 88 -3 -4 258
-3 258 -28 58 c-30 60 -80 103 -145 125 -49 17 -149 22 -210 11z m198 -404 c0
-25 -29 -88 -53 -113 -33 -35 -71 -52 -119 -52 -56 0 -88 22 -88 61 0 48 36
75 126 94 43 9 84 18 89 20 25 8 45 4 45 -10z"/>
<path d="M4785 5361 c-22 -10 -53 -32 -70 -49 -28 -30 -53 -43 -40 -22 3 5 3
25 -1 45 l-6 35 -84 0 -84 0 0 -350 0 -350 90 0 90 0 0 178 c1 195 8 251 37
290 39 52 70 67 139 67 l64 0 0 88 0 87 -47 0 c-27 0 -66 -9 -88 -19z"/>
<path d="M7283 5366 c-89 -28 -148 -80 -187 -167 -70 -153 -41 -358 64 -453
75 -68 113 -81 230 -81 95 0 110 3 155 27 128 68 193 193 182 354 -9 152 -87
266 -213 313 -63 24 -166 27 -231 7z m160 -150 c69 -29 97 -88 97 -200 -1
-122 -50 -195 -137 -203 -39 -4 -55 0 -82 19 -117 80 -102 329 24 384 39 17
58 17 98 0z"/>
<path d="M8013 5361 c-103 -35 -177 -119 -207 -236 -66 -250 78 -463 315 -465
161 -1 279 83 303 218 l6 32 -100 0 c-85 0 -100 -2 -100 -16 0 -9 -16 -32 -35
-51 -33 -33 -39 -35 -80 -31 -95 11 -135 71 -135 203 0 123 43 195 125 211 47
9 104 -21 121 -63 l14 -33 96 0 96 0 -7 33 c-32 156 -241 257 -412 198z"/>
<path d="M1520 4692 c0 -420 2 -436 64 -508 18 -22 55 -50 82 -64 l49 -25 569
-3 c495 -2 575 -1 623 13 98 29 176 124 184 224 l4 43 -125 2 c-69 2 -139 4
-156 4 -38 2 -84 45 -84 79 0 14 20 76 45 140 l45 115 0 130 c0 100 -3 129
-12 125 -262 -106 -478 -187 -501 -187 -17 0 -197 65 -402 145 -205 80 -375
145 -379 145 -3 0 -6 -170 -6 -378z m858 -58 c13 -9 30 -32 39 -51 13 -33 13
-40 -3 -77 -11 -25 -20 -79 -23 -136 l-6 -95 -72 -3 -73 -3 0 94 c0 71 -4 98
-15 107 -24 20 -30 78 -11 116 32 68 102 88 164 48z"/>
</g>
</svg>
